<?xml version="1.0" encoding="utf-8"?>
<!-- Generator: Adobe Illustrator 16.0.0, SVG Export Plug-In . SVG Version: 6.00 Build 0)  -->
<!DOCTYPE svg PUBLIC "-//W3C//DTD SVG 1.1//EN" "http://www.w3.org/Graphics/SVG/1.1/DTD/svg11.dtd">
<svg version="1.1" id="Layer_1" xmlns="http://www.w3.org/2000/svg" style="display: none;" xmlns:xlink="http://www.w3.org/1999/xlink" x="0px" y="0px"
	 width="16px" height="16px" viewBox="0 0 16 16" enable-background="new 0 0 16 16" xml:space="preserve">
<path d="M10.5,5C7.462,5,5,7.462,5,10.5c0,3.037,2.462,5.5,5.5,5.5c3.037,0,5.5-2.463,5.5-5.5C16,7.462,13.537,5,10.5,5z
	 M10.754,13.38V14h-0.54v-0.616c-1.218-0.077-1.895-0.727-1.964-1.562h0.961c0.083,0.41,0.449,0.707,1.003,0.787v-1.78l-0.358-0.085
	c-0.905-0.205-1.45-0.706-1.45-1.493c0-0.89,0.733-1.519,1.808-1.622V7h0.54v0.617c1.135,0.069,1.844,0.698,1.914,1.502h-0.947
	c-0.082-0.398-0.427-0.685-0.967-0.745v1.676l0.426,0.101c1.008,0.229,1.57,0.675,1.57,1.539
	C12.75,12.641,12.014,13.294,10.754,13.38z"/>
<path d="M9.391,9.195c0,0.367,0.287,0.611,0.819,0.731l-0.001-0.001h0.005v-1.54C9.701,8.476,9.391,8.785,9.391,9.195z"/>
<path d="M10.832,10.971l-0.077-0.018v1.674c0.649-0.061,1.021-0.386,1.021-0.859C11.775,11.352,11.477,11.116,10.832,10.971z"/>
<g>
	<path d="M4.238,2.262H3.326v0.541h2.263C5.351,2.443,4.901,2.262,4.238,2.262z"/>
	<path d="M3.326,4.981h0.814c0.537,0,0.946-0.123,1.229-0.368c0.069-0.06,0.129-0.127,0.182-0.199H3.326V4.981z"/>
	<path d="M5.03,0C2.25,0,0,2.25,0,5.03c0,2.37,1.641,4.36,3.85,4.88C3.94,8.3,4.93,6.56,6.61,5.35C7.68,4.59,8.84,4.15,9.961,4.04
		C9.5,1.74,7.471,0,5.03,0z M7.334,3.359H6.592c0.004,0.061,0.015,0.116,0.015,0.179c0,0.1-0.015,0.192-0.025,0.286h0.753v0.591
		h-0.9c-0.108,0.25-0.266,0.473-0.478,0.668C5.523,5.484,4.938,5.685,4.201,5.685H3.326v2.507H2.55V4.415H1.709V3.824H2.55V3.359
		H1.709V2.803H2.55V1.559h1.822c0.709,0,1.259,0.172,1.649,0.518c0.22,0.195,0.371,0.44,0.467,0.726h0.846V3.359z"/>
	<path d="M3.326,3.359v0.465h2.445c0.011-0.08,0.021-0.161,0.021-0.249c0-0.077-0.009-0.146-0.017-0.216H3.326z"/>
</g>
</svg>
