<svg width="288" height="285" viewBox="0 0 288 285" fill="none" xmlns="http://www.w3.org/2000/svg">
<path d="M30.122 119.768C31.5592 112.959 33.6613 106.23 36.3186 99.7798C40.3438 90.0081 45.5759 80.8963 52.0678 72.5807C59.3689 63.2279 67.8994 55.1271 77.6584 48.3518C88.1958 41.0368 99.6295 35.5991 111.954 32.0756C120.372 29.667 128.967 28.2718 137.72 27.8048C147.113 27.3008 156.421 27.9118 165.659 29.6278C175.93 31.5362 185.741 34.831 195.136 39.4118C205.008 44.225 213.983 50.3442 222.12 57.6912C227.892 62.9029 233.226 68.5559 237.673 74.9415C240.917 79.6015 244.033 84.3851 246.784 89.3482C250.825 96.637 253.841 104.627 256.087 112.675C258.081 119.821 259.42 127.37 260.021 134.685H287.679C287.572 132.76 287.445 131.467 287.289 129.971C283.553 93.7857 268.23 63.0226 241.599 38.2987C187.662 -11.7786 100.783 -14.4008 43.5019 41.2698C17.1456 66.8857 2.84976 98.11 0.321082 134.685H27.9187C28.244 129.68 29.0983 124.617 30.122 119.768Z" fill="white"/>
<path d="M257.878 164.355C256.441 171.163 254.339 177.953 251.681 184.404C247.656 194.174 242.424 203.319 235.932 211.634C228.632 220.988 220.101 229.105 210.342 235.878C199.804 243.195 188.37 248.642 176.046 252.167C167.628 254.574 159.033 255.969 150.28 256.439C140.888 256.941 131.579 256.332 122.342 254.617C112.07 252.708 102.26 249.414 92.8639 244.833C82.9921 240.021 74.0178 233.9 65.8797 226.553C60.1081 221.342 54.7736 215.694 50.3272 209.306C47.0828 204.645 43.9662 199.861 41.2154 194.899C37.1748 187.609 34.1599 179.497 31.9138 171.449C29.9187 164.303 28.5797 157.016 27.9783 149.316H0.321082C0.428497 151.241 0.555932 152.656 0.711087 154.153C4.4479 190.339 19.7701 221.163 46.4014 245.886C100.339 295.963 187.217 298.494 244.498 242.823C270.854 217.204 285.151 186.275 287.679 149.315H260.081C259.756 154.705 258.903 159.506 257.878 164.355Z" fill="white"/>
<path d="M238.713 126.747C236.292 111.788 230.64 98.0338 221.703 85.7866C210.571 70.5333 196.212 59.3575 178.674 52.3636C168.95 48.4843 158.853 46.2744 148.395 45.6546C137.555 45.0131 126.903 46.0715 116.442 48.9386C105.289 51.9959 95.0053 56.8892 85.5828 63.6225C76.0698 70.4185 68.0364 78.6379 61.4845 88.3025C57.0093 94.9045 53.4311 102.204 50.7307 109.719C47.8463 117.75 46.0737 125.445 45.4157 134.685H73.3436C73.9666 128.525 75.3175 123.112 77.4474 117.646C83.0326 103.314 92.4959 91.972 105.503 83.867C112.802 79.319 120.566 76.1596 128.651 74.5707V134.685H156.756V74.5996C161.761 75.5883 166.479 77.1275 171.228 79.24C184.448 85.119 194.814 94.4791 202.348 106.794C207.668 115.494 210.708 124.675 211.749 134.685H239.647C239.44 131.605 239.13 129.32 238.713 126.747Z" fill="white"/>
<path d="M228.344 149.315H211.718H128.651V178.19H202.211C196.64 187.045 189.073 194.735 179.603 200.637C167.175 208.38 153.541 211.652 138.895 210.929C130.232 210.501 121.934 208.508 114.015 204.986C100.794 199.107 90.3383 189.634 82.8042 177.317C77.4839 168.619 74.3539 159.71 73.3128 149.315H45.4154C45.6225 152.78 45.932 154.767 46.3486 157.339C48.7706 172.298 54.4224 186.109 63.3594 198.356C74.4909 213.611 88.8503 224.801 106.388 231.795C116.113 235.674 126.209 237.892 136.667 238.511C147.508 239.152 158.16 238.1 168.62 235.232C179.773 232.174 190.057 227.279 199.48 220.546C208.993 213.75 217.026 205.534 223.578 195.867C228.053 189.266 231.632 181.881 234.331 174.365C237.216 166.335 238.989 158.939 239.647 149.314H228.344V149.315Z" fill="white"/>
</svg>
