<svg width="287" height="285" viewBox="0 0 287 285" fill="none" xmlns="http://www.w3.org/2000/svg">
<path d="M29.9917 120.526C31.4243 113.716 33.5196 107.059 36.1682 100.609C40.1807 90.8378 45.3955 81.7611 51.8663 73.4462C59.1433 64.0926 67.6465 56.0096 77.3737 49.2351C87.877 41.9193 99.2736 36.4901 111.558 32.9665C119.949 30.5584 128.515 29.1685 137.24 28.7015C146.603 28.1972 155.881 28.8097 165.087 30.5272C175.326 32.4349 185.105 35.7312 194.47 40.312C204.31 45.1245 213.255 51.2444 221.367 58.5914C227.119 63.8031 232.437 69.4568 236.869 75.8428C240.103 80.5029 243.209 85.2857 245.952 90.2491C249.978 97.538 252.984 105.384 255.223 113.432C257.212 120.578 258.546 127.215 259.145 135.3H286.713C286.606 133.76 286.48 132.224 286.324 130.729C282.601 94.5431 267.327 63.8524 240.783 39.1273C187.021 -10.9496 100.423 -13.6789 43.3282 41.9929C17.0575 67.6081 2.80805 98.7249 0.287201 135.3H27.7955C28.1194 129.91 28.971 125.375 29.9917 120.526Z" fill="url(#paint0_linear_2_17)"/>
<path d="M257.009 165.306C255.576 172.113 253.481 178.879 250.832 185.33C246.82 195.1 241.604 204.232 235.134 212.547C227.857 221.901 219.354 230.012 209.627 236.784C199.123 244.101 187.726 249.545 175.442 253.071C167.051 255.478 158.485 256.872 149.76 257.341C140.398 257.843 131.119 257.234 121.913 255.518C111.674 253.609 101.896 250.315 92.5299 245.735C82.6902 240.923 73.7446 234.8 65.6333 227.453C59.8797 222.243 54.5633 216.594 50.1313 210.207C46.8975 205.545 43.791 200.762 41.0487 195.8C37.0213 188.509 34.0161 180.447 31.7773 172.4C29.7891 165.255 28.4545 157.63 27.8554 150.315H0.287201C0.394267 151.855 0.521672 153.606 0.67594 155.104C4.40062 191.289 19.6731 222.088 46.2179 246.811C99.9801 296.887 186.577 299.455 243.671 243.786C269.942 218.167 284.193 187.275 286.712 150.315H259.204C258.88 155.32 258.03 160.457 257.009 165.306Z" fill="url(#paint1_linear_2_17)"/>
<path d="M237.906 127.504C235.492 112.546 229.859 98.8632 220.951 86.6163C209.855 71.363 195.542 60.2222 178.061 53.2276C168.369 49.3491 158.304 47.1557 147.881 46.5378C137.076 45.8964 126.458 46.9632 116.032 49.8311C104.915 52.8876 94.6644 57.7856 85.2725 64.5185C75.7904 71.3152 67.7827 79.5365 61.252 89.2012C56.7917 95.8039 53.2251 102.961 50.5339 110.475C47.6585 118.506 45.8917 126.06 45.2358 135.3H73.0731C73.694 129.14 75.0406 123.87 77.1635 118.404C82.7309 104.072 92.3289 92.8009 105.295 84.6963C112.57 80.1479 120.475 77.061 128.534 75.4717V135.3H156.164V75.5006C161.153 76.4885 165.88 78.0285 170.613 80.141C183.791 86.0203 194.136 95.2365 201.645 107.553C206.948 116.252 209.992 125.29 211.029 135.3H238.836C238.63 132.22 238.321 130.077 237.906 127.504Z" fill="url(#paint2_linear_2_17)"/>
<path d="M227.57 150.315H210.998H128.534V178.42H201.522C195.969 187.66 188.428 195.3 178.988 201.202C166.6 208.946 153.011 212.385 138.411 211.662C129.777 211.234 121.506 209.325 113.612 205.805C100.434 199.925 90.0126 190.543 82.503 178.226C77.1999 169.527 74.08 160.325 73.0427 150.315H45.2358C45.4419 153.01 45.7508 155.718 46.166 158.289C48.5802 173.249 54.2137 187.034 63.1213 199.281C74.217 214.536 88.5294 225.715 106.01 232.709C115.703 236.587 125.767 238.798 136.191 239.418C146.997 240.06 157.614 239.005 168.04 236.136C179.158 233.079 189.407 228.182 198.801 221.45C208.282 214.654 216.289 206.436 222.819 196.77C227.281 190.169 230.847 182.832 233.538 175.315C236.413 167.286 238.18 159.555 238.836 150.315H227.57Z" fill="url(#paint3_linear_2_17)"/>
<defs>
<linearGradient id="paint0_linear_2_17" x1="286.713" y1="68.102" x2="0.287235" y2="68.102" gradientUnits="userSpaceOnUse">
<stop stop-color="#4F14A4"/>
<stop offset="0.5" stop-color="#1A1F9F"/>
<stop offset="1" stop-color="#2375D8"/>
</linearGradient>
<linearGradient id="paint1_linear_2_17" x1="0.287239" y1="217.634" x2="286.713" y2="217.634" gradientUnits="userSpaceOnUse">
<stop stop-color="#4F14A4"/>
<stop offset="0.5" stop-color="#1A1F9F"/>
<stop offset="1" stop-color="#2375D8"/>
</linearGradient>
<linearGradient id="paint2_linear_2_17" x1="238.836" y1="90.8291" x2="45.2356" y2="90.8291" gradientUnits="userSpaceOnUse">
<stop stop-color="#1A1A1A"/>
<stop offset="1" stop-color="#808080"/>
</linearGradient>
<linearGradient id="paint3_linear_2_17" x1="45.2356" y1="194.957" x2="238.836" y2="194.957" gradientUnits="userSpaceOnUse">
<stop stop-color="#1A1A1A"/>
<stop offset="1" stop-color="#808080"/>
</linearGradient>
</defs>
</svg>
