<?xml version="1.0" encoding="utf-8"?>
<!-- Generator: Adobe Illustrator 16.0.0, SVG Export Plug-In . SVG Version: 6.00 Build 0)  -->
<!DOCTYPE svg PUBLIC "-//W3C//DTD SVG 1.1//EN" "http://www.w3.org/Graphics/SVG/1.1/DTD/svg11.dtd">
<svg version="1.1" id="Layer_1" xmlns="http://www.w3.org/2000/svg" xmlns:xlink="http://www.w3.org/1999/xlink" x="0px" y="0px"
	 width="800px" height="800px" viewBox="0 0 800 800" enable-background="new 0 0 800 800" xml:space="preserve">
<rect y="0.136" fill="none" width="800" height="800"/>
<g>
	<path fill="#1F0E9A" d="M129.264,675.312c-2.146,0-4.163-0.428-6.051-1.281c-1.889-0.854-3.551-2.035-4.986-3.547
		c-1.436-1.51-2.561-3.26-3.376-5.246c-0.816-1.984-1.224-4.111-1.224-6.379c0-2.266,0.407-4.393,1.224-6.379
		c0.815-1.986,1.94-3.734,3.376-5.246s3.098-2.693,4.986-3.547c1.888-0.854,3.905-1.279,6.051-1.279c2.16,0,4.185,0.426,6.073,1.279
		s3.551,2.035,4.985,3.547c1.436,1.512,2.558,3.26,3.365,5.246c0.809,1.986,1.213,4.113,1.213,6.379
		c0,2.268-0.404,4.395-1.213,6.379c-0.808,1.986-1.93,3.736-3.365,5.246c-1.435,1.512-3.097,2.693-4.985,3.547
		S131.424,675.312,129.264,675.312z M129.264,672.138c1.737,0,3.357-0.35,4.86-1.055c1.504-0.701,2.825-1.664,3.967-2.887
		c1.14-1.225,2.032-2.637,2.673-4.238c0.643-1.602,0.964-3.301,0.964-5.1c0-1.813-0.324-3.523-0.975-5.133
		c-0.649-1.609-1.546-3.021-2.686-4.238c-1.141-1.215-2.463-2.172-3.966-2.865c-1.504-0.695-3.116-1.043-4.838-1.043
		c-1.737,0-3.357,0.352-4.861,1.053c-1.503,0.703-2.825,1.666-3.966,2.891c-1.142,1.223-2.031,2.637-2.674,4.238
		c-0.643,1.6-0.963,3.301-0.963,5.098c0,1.828,0.324,3.543,0.974,5.145c0.65,1.602,1.545,3.014,2.687,4.238
		c1.14,1.223,2.462,2.18,3.966,2.865C125.928,671.794,127.542,672.138,129.264,672.138z"/>
	<path fill="#1F0E9A" d="M150.723,674.722V652.06h3.174v3.129c0.815-1.15,1.857-2.064,3.127-2.742
		c1.27-0.682,2.658-1.021,4.17-1.021c1.707,0,3.271,0.42,4.69,1.26c1.421,0.838,2.53,1.951,3.331,3.342
		c0.801-1.391,1.904-2.504,3.309-3.342c1.405-0.84,2.962-1.26,4.669-1.26s3.263,0.416,4.668,1.246
		c1.405,0.832,2.523,1.951,3.354,3.355c0.832,1.404,1.247,2.961,1.247,4.668v14.027h-3.173v-13.324c0-1.209-0.294-2.328-0.883-3.355
		c-0.59-1.027-1.38-1.854-2.368-2.48c-0.99-0.627-2.089-0.939-3.298-0.939s-2.308,0.289-3.298,0.871
		c-0.989,0.582-1.778,1.383-2.368,2.402c-0.589,1.02-0.884,2.186-0.884,3.502v13.324h-3.172v-13.324
		c0-1.316-0.295-2.482-0.884-3.502c-0.59-1.02-1.383-1.82-2.38-2.402s-2.101-0.871-3.31-0.871c-1.192,0-2.288,0.313-3.285,0.939
		s-1.79,1.453-2.38,2.48s-0.883,2.146-0.883,3.355v13.324H150.723z"/>
	<path fill="#1F0E9A" d="M212.113,660.694v14.027h-3.172v-13.395c0-1.236-0.303-2.361-0.907-3.375
		c-0.604-1.012-1.412-1.82-2.424-2.426c-1.013-0.604-2.139-0.904-3.378-0.904c-1.223,0-2.345,0.301-3.364,0.904
		c-1.021,0.605-1.832,1.414-2.437,2.426c-0.604,1.014-0.907,2.139-0.907,3.375v13.395h-3.171V652.06h3.171v3.129
		c0.802-1.15,1.844-2.064,3.128-2.742c1.284-0.682,2.682-1.021,4.192-1.021c1.707,0,3.264,0.416,4.669,1.246
		c1.404,0.832,2.522,1.951,3.354,3.355S212.113,658.987,212.113,660.694z"/>
	<path fill="#1F0E9A" d="M219.614,648.095c-0.514,0-0.948-0.17-1.304-0.51c-0.354-0.34-0.531-0.768-0.531-1.281
		s0.177-0.939,0.531-1.281c0.355-0.34,0.79-0.51,1.304-0.51c0.499,0,0.925,0.17,1.28,0.51c0.354,0.342,0.532,0.768,0.532,1.281
		s-0.173,0.941-0.521,1.281C220.558,647.925,220.128,648.095,219.614,648.095z M218.006,652.06h3.172v22.662h-3.172V652.06z"/>
	<path fill="#1F0E9A" d="M227.908,674.722V652.06h3.174v3.129c0.815-1.15,1.857-2.064,3.126-2.742
		c1.271-0.682,2.659-1.021,4.171-1.021c1.707,0,3.271,0.42,4.69,1.26c1.421,0.838,2.53,1.951,3.331,3.342
		c0.801-1.391,1.904-2.504,3.309-3.342c1.405-0.84,2.962-1.26,4.669-1.26s3.263,0.416,4.668,1.246
		c1.405,0.832,2.523,1.951,3.354,3.355c0.832,1.404,1.247,2.961,1.247,4.668v14.027h-3.173v-13.324c0-1.209-0.294-2.328-0.883-3.355
		c-0.59-1.027-1.38-1.854-2.368-2.48c-0.989-0.627-2.089-0.939-3.298-0.939s-2.309,0.289-3.298,0.871s-1.778,1.383-2.368,2.402
		c-0.589,1.02-0.884,2.186-0.884,3.502v13.324h-3.172v-13.324c0-1.316-0.295-2.482-0.884-3.502c-0.59-1.02-1.383-1.82-2.38-2.402
		s-2.101-0.871-3.31-0.871c-1.192,0-2.287,0.313-3.285,0.939c-0.997,0.627-1.79,1.453-2.38,2.48
		c-0.589,1.027-0.883,2.146-0.883,3.355v13.324H227.908z"/>
	<path fill="#1F0E9A" d="M279.056,675.312c-2.084,0-3.984-0.537-5.699-1.609c-1.716-1.072-3.082-2.512-4.102-4.316
		c-1.02-1.807-1.53-3.805-1.53-5.996c0-1.66,0.295-3.213,0.885-4.656c0.589-1.441,1.4-2.711,2.435-3.807
		c1.035-1.096,2.241-1.951,3.615-2.572c1.375-0.619,2.84-0.93,4.396-0.93c1.677,0,3.222,0.334,4.635,0.998
		c1.412,0.666,2.629,1.594,3.648,2.787s1.79,2.592,2.312,4.193s0.736,3.33,0.646,5.189h-19.217c0.182,1.434,0.638,2.719,1.371,3.852
		c0.732,1.133,1.668,2.029,2.81,2.686c1.141,0.658,2.406,0.994,3.796,1.008c1.511,0,2.874-0.393,4.09-1.178
		c1.217-0.785,2.195-1.865,2.936-3.24l3.219,0.748c-0.907,2.01-2.274,3.652-4.103,4.928
		C283.369,674.673,281.321,675.312,279.056,675.312z M270.988,662.032h16.112c-0.106-1.406-0.532-2.695-1.28-3.863
		c-0.748-1.172-1.712-2.107-2.89-2.813c-1.178-0.701-2.47-1.053-3.875-1.053c-1.404,0-2.689,0.344-3.853,1.031
		c-1.164,0.688-2.115,1.617-2.855,2.787C271.607,659.294,271.154,660.597,270.988,662.032z"/>
	<path fill="#1F0E9A" d="M306.727,655.231h-5.417l-0.021,19.49h-3.174l0.023-19.49h-4.102v-3.172h4.102l-0.023-7.115h3.174
		l0.021,7.115h5.417V655.231z"/>
	<path fill="#1F0E9A" d="M330.159,652.06h3.172v22.662h-3.172l-0.114-4.215c-0.741,1.436-1.775,2.594-3.104,3.479
		c-1.33,0.883-2.916,1.326-4.76,1.326c-1.662,0-3.217-0.313-4.668-0.941c-1.45-0.627-2.728-1.492-3.83-2.596
		c-1.104-1.102-1.964-2.379-2.583-3.83c-0.619-1.449-0.929-3.004-0.929-4.668c0-1.631,0.305-3.162,0.918-4.6
		c0.612-1.434,1.457-2.697,2.537-3.783c1.08-1.088,2.334-1.938,3.762-2.549c1.429-0.613,2.958-0.92,4.59-0.92
		c1.888,0,3.535,0.449,4.939,1.35c1.405,0.898,2.523,2.072,3.354,3.523L330.159,652.06z M322.113,672.228
		c1.616,0,3.006-0.395,4.169-1.188c1.164-0.795,2.06-1.863,2.687-3.207c0.626-1.344,0.94-2.826,0.94-4.443
		c0-1.66-0.317-3.16-0.952-4.496c-0.635-1.338-1.533-2.398-2.696-3.186c-1.164-0.785-2.546-1.178-4.147-1.178
		s-3.063,0.396-4.385,1.189c-1.322,0.795-2.372,1.861-3.149,3.207c-0.779,1.344-1.168,2.832-1.168,4.463
		c0,1.646,0.4,3.139,1.201,4.477c0.8,1.338,1.861,2.398,3.184,3.184C319.117,671.837,320.558,672.228,322.113,672.228z"/>
	<path fill="#1F0E9A" d="M366.167,675.312c-2.176,0-4.212-0.428-6.107-1.281c-1.896-0.854-3.554-2.039-4.975-3.557
		c-1.419-1.52-2.53-3.271-3.331-5.258s-1.2-4.113-1.2-6.381c0-2.311,0.415-4.463,1.245-6.457c0.832-1.996,1.973-3.736,3.423-5.225
		c1.451-1.488,3.116-2.646,4.997-3.479c1.881-0.83,3.879-1.246,5.994-1.246c2.433,0,4.731,0.566,6.9,1.701
		c2.168,1.131,4.007,2.74,5.518,4.826l-2.832,1.541c-1.209-1.588-2.664-2.803-4.362-3.65c-1.699-0.844-3.449-1.268-5.247-1.268
		c-1.707,0-3.312,0.344-4.815,1.029c-1.503,0.689-2.829,1.645-3.977,2.867c-1.148,1.225-2.048,2.637-2.697,4.238
		c-0.65,1.604-0.975,3.324-0.975,5.166c0,1.83,0.324,3.543,0.975,5.146c0.649,1.602,1.544,3.01,2.686,4.225
		c1.141,1.217,2.466,2.17,3.978,2.855c1.51,0.688,3.127,1.031,4.85,1.031c1.419,0,2.769-0.244,4.044-0.734
		c1.278-0.492,2.444-1.184,3.503-2.076c1.057-0.891,1.951-1.934,2.685-3.127c0.732-1.193,1.265-2.492,1.598-3.896h-8.566v-2.879
		h12.26c-0.045,2.191-0.483,4.246-1.313,6.164c-0.832,1.918-1.96,3.607-3.388,5.064c-1.429,1.459-3.067,2.6-4.918,3.422
		C370.265,674.899,368.282,675.312,366.167,675.312z"/>
	<path fill="#1F0E9A" d="M387.695,674.722v-33.992h3.172v33.992H387.695z"/>
	<path fill="#1F0E9A" d="M407.479,675.312c-2.085,0-3.984-0.537-5.7-1.609c-1.714-1.072-3.081-2.512-4.102-4.316
		c-1.02-1.807-1.529-3.805-1.529-5.996c0-1.66,0.295-3.213,0.885-4.656c0.588-1.441,1.4-2.711,2.436-3.807
		c1.034-1.096,2.239-1.951,3.614-2.572c1.375-0.619,2.841-0.93,4.396-0.93c2.085,0,3.984,0.537,5.7,1.609
		c1.714,1.074,3.081,2.516,4.101,4.328c1.02,1.814,1.529,3.822,1.529,6.027c0,1.646-0.294,3.189-0.883,4.625
		c-0.59,1.436-1.402,2.701-2.437,3.795c-1.035,1.096-2.236,1.953-3.603,2.572C410.52,675.001,409.051,675.312,407.479,675.312z
		 M407.479,672.138c1.541,0,2.927-0.402,4.157-1.211c1.232-0.809,2.208-1.879,2.924-3.207c0.719-1.33,1.077-2.773,1.077-4.33
		c0-1.586-0.362-3.047-1.088-4.383c-0.725-1.338-1.702-2.406-2.935-3.207c-1.232-0.803-2.61-1.201-4.136-1.201
		c-1.541,0-2.928,0.402-4.158,1.211c-1.231,0.809-2.205,1.879-2.924,3.207c-0.717,1.33-1.075,2.787-1.075,4.373
		c0,1.633,0.369,3.109,1.109,4.432c0.74,1.32,1.729,2.371,2.969,3.15C404.639,671.749,405.998,672.138,407.479,672.138z"/>
	<path fill="#1F0E9A" d="M435.103,651.425c2.208,0,4.212,0.537,6.019,1.609c1.804,1.074,3.243,2.512,4.316,4.318
		c1.072,1.805,1.609,3.811,1.609,6.016c0,1.646-0.31,3.191-0.929,4.635c-0.62,1.443-1.478,2.713-2.573,3.807
		c-1.096,1.096-2.364,1.953-3.807,2.572s-2.988,0.93-4.636,0.93c-1.873,0-3.488-0.447-4.85-1.338
		c-1.359-0.891-2.432-2.055-3.217-3.49v4.238h-3.173v-33.992h3.173v15.523c0.785-1.436,1.857-2.6,3.217-3.49
		C431.614,651.872,433.229,651.425,435.103,651.425z M435.082,672.206c1.615,0,3.081-0.396,4.395-1.189
		c1.315-0.793,2.365-1.861,3.15-3.205c0.786-1.346,1.18-2.826,1.18-4.443c0-1.662-0.401-3.162-1.202-4.498
		c-0.801-1.338-1.86-2.398-3.184-3.186c-1.323-0.783-2.769-1.178-4.339-1.178c-1.603,0-2.988,0.4-4.159,1.201
		s-2.07,1.873-2.696,3.219c-0.628,1.344-0.941,2.824-0.941,4.441c0,1.646,0.317,3.139,0.952,4.477
		c0.634,1.336,1.537,2.398,2.708,3.184C432.117,671.813,433.495,672.206,435.082,672.206z"/>
	<path fill="#1F0E9A" d="M470.66,652.06h3.172v22.662h-3.172l-0.114-4.215c-0.741,1.436-1.775,2.594-3.104,3.479
		c-1.331,0.883-2.918,1.326-4.76,1.326c-1.663,0-3.219-0.313-4.669-0.941c-1.45-0.627-2.727-1.492-3.83-2.596
		c-1.104-1.102-1.963-2.379-2.583-3.83c-0.62-1.449-0.93-3.004-0.93-4.668c0-1.631,0.307-3.162,0.918-4.6
		c0.612-1.434,1.458-2.697,2.538-3.783c1.08-1.088,2.334-1.938,3.763-2.549c1.427-0.613,2.956-0.92,4.589-0.92
		c1.888,0,3.535,0.449,4.94,1.35c1.405,0.898,2.522,2.072,3.354,3.523L470.66,652.06z M462.614,672.228
		c1.616,0,3.007-0.395,4.17-1.188c1.163-0.795,2.059-1.863,2.685-3.207c0.627-1.344,0.94-2.826,0.94-4.443
		c0-1.66-0.316-3.16-0.95-4.496c-0.635-1.338-1.534-2.398-2.698-3.186c-1.163-0.785-2.546-1.178-4.146-1.178
		c-1.602,0-3.064,0.396-4.386,1.189c-1.321,0.795-2.371,1.861-3.148,3.207c-0.78,1.344-1.168,2.832-1.168,4.463
		c0,1.646,0.4,3.139,1.201,4.477s1.861,2.398,3.184,3.184C459.618,671.837,461.057,672.228,462.614,672.228z"/>
	<path fill="#1F0E9A" d="M480.018,674.722v-33.992h3.173v33.992H480.018z"/>
	<path fill="#1F0E9A" d="M513.307,675.312c-1.692,0-3.328-0.266-4.905-0.793c-1.58-0.529-2.958-1.285-4.137-2.268
		c-1.178-0.982-2.009-2.152-2.492-3.512l2.969-1.111c0.331,0.938,0.94,1.742,1.824,2.414c0.885,0.674,1.919,1.189,3.104,1.553
		c1.186,0.361,2.398,0.543,3.637,0.543c1.451,0,2.804-0.24,4.058-0.725c1.254-0.482,2.266-1.16,3.036-2.027
		c0.771-0.869,1.156-1.893,1.156-3.072c0-1.191-0.401-2.174-1.202-2.945c-0.8-0.77-1.831-1.379-3.093-1.824s-2.58-0.791-3.955-1.031
		c-2.16-0.377-4.098-0.891-5.813-1.541c-1.714-0.65-3.07-1.566-4.068-2.754c-0.997-1.186-1.494-2.754-1.494-4.701
		c0-1.828,0.527-3.414,1.586-4.76c1.058-1.346,2.45-2.387,4.181-3.127s3.6-1.109,5.608-1.109c1.647,0,3.257,0.256,4.827,0.77
		c1.572,0.514,2.958,1.262,4.159,2.242c1.2,0.982,2.065,2.184,2.595,3.605l-3.015,1.086c-0.331-0.951-0.94-1.764-1.824-2.436
		s-1.915-1.186-3.094-1.541c-1.178-0.355-2.395-0.533-3.648-0.533c-1.436-0.014-2.775,0.223-4.021,0.715
		c-1.247,0.49-2.255,1.172-3.026,2.039c-0.77,0.869-1.155,1.885-1.155,3.049c0,1.359,0.358,2.404,1.077,3.139
		c0.717,0.732,1.694,1.279,2.934,1.643c1.24,0.363,2.637,0.688,4.192,0.975c2.025,0.348,3.906,0.887,5.644,1.621
		c1.738,0.732,3.135,1.707,4.191,2.924c1.058,1.215,1.586,2.713,1.586,4.496c0,1.813-0.528,3.396-1.586,4.748
		c-1.057,1.354-2.45,2.398-4.18,3.139C517.231,674.94,515.347,675.312,513.307,675.312z"/>
	<path fill="#1F0E9A" d="M540.908,675.312c-2.083,0-3.985-0.537-5.698-1.609c-1.716-1.072-3.083-2.512-4.102-4.316
		c-1.021-1.807-1.53-3.805-1.53-5.996c0-1.66,0.295-3.213,0.884-4.656c0.589-1.441,1.401-2.711,2.436-3.807
		c1.036-1.096,2.241-1.951,3.615-2.572c1.373-0.619,2.84-0.93,4.396-0.93c2.086,0,3.984,0.537,5.7,1.609
		c1.715,1.074,3.081,2.516,4.101,4.328c1.021,1.814,1.531,3.822,1.531,6.027c0,1.646-0.295,3.189-0.885,4.625
		c-0.589,1.436-1.401,2.701-2.435,3.795c-1.035,1.096-2.237,1.953-3.605,2.572C543.948,675.001,542.479,675.312,540.908,675.312z
		 M540.908,672.138c1.542,0,2.928-0.402,4.159-1.211c1.23-0.809,2.205-1.879,2.924-3.207c0.717-1.33,1.076-2.773,1.076-4.33
		c0-1.586-0.362-3.047-1.089-4.383c-0.725-1.338-1.704-2.406-2.935-3.207c-1.23-0.803-2.609-1.201-4.136-1.201
		c-1.54,0-2.927,0.402-4.157,1.211c-1.232,0.809-2.207,1.879-2.924,3.207c-0.719,1.33-1.077,2.787-1.077,4.373
		c0,1.633,0.372,3.109,1.111,4.432c0.739,1.32,1.73,2.371,2.968,3.15C538.068,671.749,539.428,672.138,540.908,672.138z"/>
	<path fill="#1F0E9A" d="M557.294,674.722v-33.992h3.172v33.992H557.294z"/>
	<path fill="#1F0E9A" d="M566.357,666.042V652.06h3.174v13.35c0,1.238,0.302,2.363,0.905,3.375c0.604,1.012,1.416,1.82,2.436,2.426
		c1.021,0.604,2.143,0.904,3.365,0.904c1.24,0,2.361-0.301,3.367-0.904c1.003-0.605,1.808-1.414,2.412-2.426
		s0.907-2.137,0.907-3.375v-13.35h3.172l0.023,22.662h-3.174l-0.021-3.172c-0.801,1.148-1.84,2.061-3.116,2.742
		c-1.276,0.68-2.671,1.02-4.181,1.02c-1.707,0-3.264-0.418-4.669-1.248c-1.406-0.83-2.522-1.949-3.354-3.352
		C566.773,669.306,566.357,667.749,566.357,666.042z"/>
	<path fill="#1F0E9A" d="M603.59,655.231h-5.414l-0.023,19.49h-3.173l0.022-19.49H590.9v-3.172h4.102l-0.022-7.115h3.173
		l0.023,7.115h5.414V655.231z"/>
	<path fill="#1F0E9A" d="M610.456,648.095c-0.515,0-0.948-0.17-1.302-0.51c-0.356-0.34-0.534-0.768-0.534-1.281
		s0.178-0.939,0.534-1.281c0.354-0.34,0.787-0.51,1.302-0.51c0.499,0,0.925,0.17,1.279,0.51c0.356,0.342,0.534,0.768,0.534,1.281
		s-0.175,0.941-0.521,1.281C611.4,647.925,610.97,648.095,610.456,648.095z M608.848,652.06h3.173v22.662h-3.173V652.06z"/>
	<path fill="#1F0E9A" d="M628.563,675.312c-2.085,0-3.985-0.537-5.7-1.609s-3.081-2.512-4.101-4.316
		c-1.02-1.807-1.529-3.805-1.529-5.996c0-1.66,0.294-3.213,0.882-4.656c0.591-1.441,1.402-2.711,2.437-3.807
		c1.035-1.096,2.241-1.951,3.615-2.572c1.374-0.619,2.84-0.93,4.396-0.93c2.084,0,3.983,0.537,5.699,1.609
		c1.715,1.074,3.082,2.516,4.102,4.328c1.021,1.814,1.53,3.822,1.53,6.027c0,1.646-0.295,3.189-0.885,4.625
		c-0.588,1.436-1.4,2.701-2.436,3.795c-1.034,1.096-2.236,1.953-3.604,2.572C631.603,675.001,630.134,675.312,628.563,675.312z
		 M628.563,672.138c1.541,0,2.926-0.402,4.159-1.211c1.23-0.809,2.204-1.879,2.923-3.207c0.717-1.33,1.076-2.773,1.076-4.33
		c0-1.586-0.362-3.047-1.088-4.383c-0.725-1.338-1.704-2.406-2.935-3.207c-1.23-0.803-2.609-1.201-4.136-1.201
		c-1.541,0-2.928,0.402-4.158,1.211c-1.232,0.809-2.207,1.879-2.924,3.207c-0.719,1.33-1.077,2.787-1.077,4.373
		c0,1.633,0.371,3.109,1.111,4.432c0.739,1.32,1.729,2.371,2.969,3.15C625.723,671.749,627.082,672.138,628.563,672.138z"/>
	<path fill="#1F0E9A" d="M664.868,660.694v14.027h-3.173v-13.395c0-1.236-0.303-2.361-0.907-3.375
		c-0.604-1.012-1.412-1.82-2.425-2.426c-1.013-0.604-2.138-0.904-3.375-0.904c-1.225,0-2.347,0.301-3.367,0.904
		c-1.02,0.605-1.831,1.414-2.436,2.426c-0.604,1.014-0.906,2.139-0.906,3.375v13.395h-3.172V652.06h3.172v3.129
		c0.8-1.15,1.844-2.064,3.127-2.742c1.284-0.682,2.682-1.021,4.192-1.021c1.707,0,3.264,0.416,4.669,1.246
		c1.406,0.832,2.522,1.951,3.354,3.355C664.451,657.431,664.868,658.987,664.868,660.694z"/>
	<path fill="#1F0E9A" d="M677.763,675.151c-1.239-0.029-2.447-0.258-3.626-0.678c-1.18-0.424-2.205-0.998-3.082-1.723
		s-1.503-1.549-1.881-2.471l2.741-1.178c0.242,0.588,0.692,1.129,1.348,1.619c0.657,0.49,1.411,0.885,2.256,1.178
		c0.847,0.295,1.684,0.443,2.517,0.443c0.921,0,1.781-0.15,2.582-0.453s1.454-0.738,1.961-1.303
		c0.506-0.566,0.759-1.236,0.759-2.006c0-0.832-0.271-1.484-0.816-1.961c-0.543-0.477-1.231-0.854-2.062-1.133
		s-1.685-0.547-2.562-0.805c-1.601-0.438-3.013-0.92-4.236-1.449s-2.18-1.205-2.868-2.029c-0.688-0.822-1.03-1.885-1.03-3.184
		c0-1.375,0.389-2.564,1.168-3.57c0.777-1.004,1.798-1.781,3.059-2.334c1.262-0.551,2.609-0.826,4.046-0.826
		c1.842,0,3.522,0.4,5.041,1.199c1.519,0.801,2.618,1.869,3.297,3.195l-2.56,1.52c-0.272-0.619-0.703-1.156-1.293-1.609
		c-0.588-0.453-1.256-0.807-2.004-1.064c-0.749-0.258-1.508-0.393-2.277-0.408c-0.969-0.014-1.867,0.125-2.697,0.418
		c-0.831,0.297-1.499,0.73-2.007,1.305c-0.506,0.574-0.759,1.277-0.759,2.107c0,0.832,0.25,1.463,0.748,1.891
		c0.499,0.432,1.174,0.779,2.028,1.045c0.853,0.264,1.816,0.57,2.889,0.916c1.375,0.439,2.666,0.938,3.877,1.496
		c1.207,0.559,2.182,1.254,2.923,2.086c0.74,0.83,1.103,1.881,1.088,3.15c0,1.359-0.409,2.545-1.225,3.559
		c-0.816,1.01-1.874,1.785-3.172,2.32C680.633,674.952,679.243,675.198,677.763,675.151z"/>
</g>
<g>
	<linearGradient id="SVGID_1_" gradientUnits="userSpaceOnUse" x1="628.2754" y1="230.4521" x2="176.8848" y2="230.4522">
		<stop  offset="0" style="stop-color:#4F14A4"/>
		<stop  offset="0.5" style="stop-color:#1A1F9F"/>
		<stop  offset="1" style="stop-color:#2375D8"/>
	</linearGradient>
	<path fill="url(#SVGID_1_)" d="M223.697,312.701c2.258-10.695,5.56-21.267,9.733-31.399c6.323-15.35,14.542-29.663,24.739-42.726
		c11.469-14.691,24.869-27.417,40.198-38.06c16.553-11.49,34.514-20.033,53.873-25.568c13.224-3.783,26.724-5.974,40.474-6.708
		c14.755-0.791,29.377,0.168,43.887,2.863c16.135,2.998,31.546,8.174,46.305,15.369c15.507,7.561,29.605,17.173,42.388,28.714
		c9.065,8.188,17.445,17.066,24.431,27.098c5.096,7.32,9.991,14.834,14.313,22.631c6.348,11.449,11.084,24.001,14.612,36.644
		c3.133,11.225,5.236,22.577,6.181,34.577h43.445c-0.169-3-0.368-5.058-0.612-7.407c-5.869-56.842-29.938-105.165-71.771-144.003
		c-84.727-78.662-221.199-82.779-311.178,4.67c-41.401,40.238-63.857,88.74-67.83,146.74h43.352
		C220.747,328.136,222.089,320.318,223.697,312.701z"/>
	<linearGradient id="SVGID_2_" gradientUnits="userSpaceOnUse" x1="176.8848" y1="464.9199" x2="628.2754" y2="464.9199">
		<stop  offset="0" style="stop-color:#4F14A4"/>
		<stop  offset="0.5" style="stop-color:#1A1F9F"/>
		<stop  offset="1" style="stop-color:#2375D8"/>
	</linearGradient>
	<path fill="url(#SVGID_2_)" d="M581.463,382.75c-2.258,10.693-5.56,21.354-9.733,31.487c-6.323,15.348-14.542,29.708-24.739,42.771
		c-11.468,14.693-24.869,27.442-40.197,38.081c-16.555,11.494-34.516,20.049-53.874,25.586c-13.224,3.781-26.724,5.974-40.474,6.71
		c-14.754,0.789-29.377-0.167-43.886-2.862c-16.136-2.998-31.546-8.173-46.306-15.368c-15.507-7.559-29.604-17.175-42.388-28.716
		c-9.066-8.186-17.445-17.059-24.43-27.092c-5.097-7.322-9.992-14.836-14.313-22.631c-6.347-11.451-11.083-24.183-14.611-36.823
		c-3.134-11.225-5.237-22.757-6.182-34.757h-43.445c0.169,3,0.369,5.235,0.612,7.587c5.87,56.842,29.938,105.255,71.771,144.091
		c84.727,78.662,221.198,82.646,311.176-4.803c41.402-40.24,63.859-88.875,67.831-146.875h-43.352
		C584.412,367.136,583.072,375.133,581.463,382.75z"/>
	<linearGradient id="SVGID_3_" gradientUnits="userSpaceOnUse" x1="552.8242" y1="266.0664" x2="247.7207" y2="266.0664">
		<stop  offset="0" style="stop-color:#1A1A1A"/>
		<stop  offset="1" style="stop-color:#808080"/>
	</linearGradient>
	<path fill="url(#SVGID_3_)" d="M551.358,323.664c-3.804-23.498-12.682-45.104-26.72-64.343
		c-17.486-23.961-40.042-41.517-67.592-52.503c-15.274-6.094-31.136-9.565-47.563-10.538c-17.028-1.008-33.762,0.654-50.192,5.158
		c-17.521,4.803-33.674,12.489-48.476,23.065c-14.943,10.676-27.563,23.587-37.854,38.769c-7.029,10.371-12.65,21.84-16.892,33.643
		c-4.531,12.615-7.315,24.221-8.35,39.221h43.87c0.979-10,3.101-18.181,6.446-26.767c8.773-22.514,23.903-40.331,44.336-53.063
		C353.839,249.161,366,244.198,379,241.702v94.434h44v-94.389c8,1.553,15.082,3.971,22.541,7.289
		c20.768,9.234,36.955,23.94,48.789,43.286c8.357,13.666,13.037,27.813,14.672,43.813h43.822
		C552.499,331.136,552.013,327.705,551.358,323.664z"/>
	<linearGradient id="SVGID_4_" gradientUnits="userSpaceOnUse" x1="247.7207" y1="429.3232" x2="552.8242" y2="429.3232">
		<stop  offset="0" style="stop-color:#1A1A1A"/>
		<stop  offset="1" style="stop-color:#808080"/>
	</linearGradient>
	<path fill="url(#SVGID_4_)" d="M535.07,359.136h-26.116H379v45h115.02c-8.751,14-20.637,26.155-35.513,35.427
		c-19.522,12.164-40.938,17.388-63.946,16.251c-13.607-0.672-26.642-3.761-39.082-9.292c-20.768-9.236-37.191-24.084-49.026-43.432
		c-8.357-13.664-13.274-27.954-14.909-43.954h-43.822c0.325,5,0.812,8.552,1.466,12.593c3.805,23.498,12.683,45.187,26.721,64.425
		c17.486,23.963,40.042,41.538,67.591,52.524c15.275,6.092,31.136,9.575,47.563,10.548c17.029,1.008,33.763-0.646,50.193-5.152
		c17.52-4.803,33.673-12.491,48.476-23.067c14.942-10.676,27.562-23.583,37.854-38.767c7.029-10.369,12.651-21.959,16.891-33.766
		c4.532-12.613,7.317-24.338,8.351-39.338H535.07z"/>
</g>
</svg>
